<svg xmlns="http://www.w3.org/2000/svg" width="48" height="49" viewBox="0 0 48 49">
    <g fill="none" fill-rule="evenodd">
        <g>
            <g>
                <g>
                    <g>
                        <g transform="translate(-258 -778) translate(202 298) translate(32 460) translate(28 24)">
                            <rect width="40" height="40" fill="#C7E3FA" rx="4"/>
                            <path fill="#94D5B2" d="M1 29l10.5-12L23 28l5-6 11 8v6c0 2.21-1.79 4-4 4H5c-2.21 0-4-1.79-4-4v-7z"/>
                            <circle cx="27" cy="13" r="4" fill="#FF9000"/>
                            <path fill="#414141" fill-rule="nonzero" d="M36 0c2.21 0 4 1.79 4 4v32c0 2.21-1.79 4-4 4H4c-2.21 0-4-1.79-4-4V4c0-2.21 1.79-4 4-4h32zM11.564 18.445L2 29.375V36c0 1.105.895 2 2 2h32c1.105 0 2-.895 2-2v-5.491l-9.831-7.15-4.4 5.281c-.372.445-1.042.483-1.46.083L11.564 18.445zM36 2H4c-1.105 0-2 .895-2 2v22.338l8.747-9.997c.349-.398.94-.451 1.352-.142l.092.078 10.726 10.26 4.315-5.177c.337-.405.93-.479 1.356-.169L38 28.036V4c0-1.105-.895-2-2-2z"/>
                        </g>
                        <g>
                            <path fill="#FFF" d="M11 22C4.925 22 0 17.075 0 11S4.925 0 11 0s11 4.925 11 11-4.925 11-11 11z" transform="translate(-258 -778) translate(202 298) translate(32 460) translate(28 24) translate(22 22)"/>
                            <path fill="#2292EF" d="M11 20c-4.97 0-9-4.03-9-9s4.03-9 9-9 9 4.03 9 9-4.03 9-9 9z" transform="translate(-258 -778) translate(202 298) translate(32 460) translate(28 24) translate(22 22)"/>
                            <path fill="#FFF" d="M11 4c3.866 0 7 3.134 7 7s-3.134 7-7 7-7-3.134-7-7 3.134-7 7-7zm.707 2.293c-.39-.39-1.024-.39-1.414 0l-4 4c-.029.028-.055.059-.08.09l-.017.022c-.018.024-.034.049-.05.074l-.021.037c-.011.02-.022.04-.031.06l-.023.053-.021.059-.014.046-.016.065-.009.052-.008.067-.002.063v-.035.073c0 .024 0 .047.003.07l.007.06.01.052c.004.022.009.043.015.065l.014.046.021.06.023.051.03.061.022.037c.016.025.032.05.05.074l.024.03.073.082 4 4c.39.39 1.024.39 1.414 0 .39-.39.39-1.024 0-1.414L9.414 12H15c.552 0 1-.448 1-1s-.448-1-1-1H9.414l2.293-2.293c.39-.39.39-1.024 0-1.414z" transform="translate(-258 -778) translate(202 298) translate(32 460) translate(28 24) translate(22 22) rotate(90 11 11)"/>
                        </g>
                    </g>
                </g>
            </g>
        </g>
    </g>
</svg>
