<svg xmlns="http://www.w3.org/2000/svg" width="48" height="48" viewBox="0 0 48 48">
    <g fill="none" fill-rule="evenodd">
        <g>
            <g>
                <g>
                    <g transform="translate(-234 -466) translate(202 298) translate(32 164) translate(0 4)">
                        <path fill="#414141" fill-rule="nonzero" d="M8 0h32c2.21 0 4 1.79 4 4v32c0 2.21-1.79 4-4 4H8c-2.21 0-4-1.79-4-4V4c0-2.21 1.79-4 4-4z"/>
                        <rect width="36" height="36" x="6" y="2" fill="#DDEEFC" rx="2"/>
                        <path fill="#414141" d="M21 30c-.552 0-1-.448-1-1s.448-1 1-1h2V12h-7v1c0 .552-.448 1-1 1s-1-.448-1-1v-2c0-.552.448-1 1-1h18c.552 0 1 .448 1 1v2c0 .552-.448 1-1 1s-1-.448-1-1v-1h-7v16h2c.552 0 1 .448 1 1s-.448 1-1 1h-6z"/>
                    </g>
                </g>
            </g>
        </g>
    </g>
</svg>
