<?xml version="1.0" encoding="UTF-8"?><!DOCTYPE svg PUBLIC "-//W3C//DTD SVG 1.1//EN" "http://www.w3.org/Graphics/SVG/1.1/DTD/svg11.dtd"><svg xmlns="http://www.w3.org/2000/svg" xmlns:xlink="http://www.w3.org/1999/xlink"><symbol id="icons-32-info-color"><g fill="none" fill-rule="evenodd"><path fill="#F3F9FE" d="M16 30c7.732 0 14-6.268 14-14S23.732 2 16 2 2 8.268 2 16s6.268 14 14 14z"/><path fill="#2192EF" fill-rule="nonzero" d="M16 30c7.732 0 14-6.268 14-14S23.732 2 16 2 2 8.268 2 16s6.268 14 14 14zm0-30c8.837 0 16 7.163 16 16s-7.163 16-16 16S0 24.837 0 16 7.163 0 16 0zm0 14h-2a1 1 0 000 2h1v6h-1a1 1 0 00-.993.883L13 23a1 1 0 001 1h4a1 1 0 000-2h-1v-7a1 1 0 00-.883-.993L16 14zm0-6a2 2 0 10-.001 3.999A2 2 0 0016 8z"/></g></symbol><symbol id="icons-48-type"><g fill="none" fill-rule="evenodd"><path fill="#414141" fill-rule="nonzero" d="M8 0h32c2.21 0 4 1.79 4 4v32c0 2.21-1.79 4-4 4H8c-2.21 0-4-1.79-4-4V4c0-2.21 1.79-4 4-4z"/><rect width="36" height="36" x="6" y="2" fill="#DDEEFC" rx="2"/><path fill="#414141" d="M21 30a1 1 0 010-2h2V12h-7v1a1 1 0 01-2 0v-2a1 1 0 011-1h18a1 1 0 011 1v2a1 1 0 01-2 0v-1h-7v16h2a1 1 0 010 2h-6z"/></g></symbol><symbol id="icons-48-upload-image"><g fill="none" fill-rule="evenodd"><g transform="translate(4 4)"><rect width="40" height="40" fill="#C7E3FA" rx="4"/><path fill="#94D5B2" d="M1 29l10.5-12L23 28l5-6 11 8v6c0 2.21-1.79 4-4 4H5c-2.21 0-4-1.79-4-4v-7z"/><circle cx="27" cy="13" r="4" fill="#FF9000"/><path fill="#414141" fill-rule="nonzero" d="M36 0c2.21 0 4 1.79 4 4v32c0 2.21-1.79 4-4 4H4c-2.21 0-4-1.79-4-4V4c0-2.21 1.79-4 4-4h32zM11.564 18.445L2 29.375V36a2 2 0 002 2h32a2 2 0 002-2v-5.491l-9.831-7.15-4.4 5.281a1.001 1.001 0 01-1.46.083L11.564 18.445zM36 2H4a2 2 0 00-2 2v22.338l8.747-9.997c.349-.398.94-.451 1.352-.142l.092.078 10.726 10.26 4.315-5.177a.999.999 0 011.356-.169L38 28.036V4a2 2 0 00-2-2z"/></g><path fill="#FFF" d="M37 48c-6.075 0-11-4.925-11-11s4.925-11 11-11 11 4.925 11 11-4.925 11-11 11z"/><path fill="#2292EF" d="M37 46a9 9 0 11.001-18.001A9 9 0 0137 46z"/><path fill="#FFF" d="M44 37a7 7 0 11-14 0 7 7 0 0114 0zm-2.293.707a1 1 0 000-1.414l-4-4a.97.97 0 00-.09-.08l-.022-.017c-.024-.018-.049-.034-.074-.05l-.037-.021c-.02-.011-.04-.022-.06-.031l-.053-.023-.059-.021-.046-.014-.065-.016-.052-.009-.067-.008-.063-.002h.035-.073c-.024 0-.047 0-.07.003l-.06.007-.052.01a.762.762 0 00-.065.015l-.046.014-.06.021-.051.023-.061.03-.037.022a1.2 1.2 0 00-.074.05l-.03.024-.082.073-4 4a1 1 0 001.414 1.414L36 35.414V41a1 1 0 002 0v-5.586l2.293 2.293a1 1 0 001.414 0z"/></g></symbol></svg>